<?xml version="1.0" encoding="UTF-8"?>
<svg id="Layer_2" data-name="Layer 2" xmlns="http://www.w3.org/2000/svg" viewBox="0 0 345.09 45.19">
  <defs>
    <style>
      .cls-1 {
        fill: #fff;
        stroke-width: 0px;
      }
    </style>
  </defs>
  <g id="LOGO_white" data-name="LOGO white">
    <path class="cls-1" d="M32.19,28.8c-1.6-3.86-4.88-6.23-9.85-7.12v-.08c2.59-.61,4.72-1.85,6.37-3.72,1.54-1.82,2.32-3.97,2.32-6.46,0-3.42-1.27-6.15-3.81-8.19C24.63,1.08,21.32,0,17.3,0H2.73C1.96.11,1.24.5.58,1.16c-.39.39-.58.91-.58,1.57h0c0,.96.78,1.73,1.73,1.73h3.73s9.35,0,9.35,0c7.01-.11,10.51,2.37,10.51,7.45,0,1.49-.3,2.73-.91,3.72-1.71,2.81-4.88,4.22-9.52,4.22H1.73c-.96,0-1.73.78-1.73,1.73v20.86c0,.83.33,1.52.99,2.07.5.44,1.08.66,1.74.66h15.14c5.02,0,8.91-1.27,11.67-3.81,1.21-1.1,2.07-2.4,2.57-3.89s.74-3.01.74-4.55-.22-2.92-.66-4.14ZM23.83,39.06c-1.71,1.21-4.66,1.82-8.86,1.82H5.46v-16.88h7.2c2.15,0,4.08.06,5.79.17,5.74.66,8.61,3.42,8.61,8.28,0,3.09-1.08,5.3-3.23,6.62Z"/>
    <path class="cls-1" d="M37.13,23.75c-.14-.38-.21-.77-.21-1.16s.07-.76.21-1.12c.14-.36.37-.69.7-.99.33-.3.7-.54,1.12-.7.41-.17.9-.25,1.45-.25s1.02.08,1.41.25c.39.17.73.4,1.03.7.3.3.52.63.66.99.14.36.21.73.21,1.12,0,.56-.15,1.13-.44,1.69-.4.5-.89.88-1.47,1.13-.39.17-.86.25-1.41.25s-1.03-.08-1.45-.25c-.41-.17-.79-.39-1.12-.66-.33-.28-.57-.61-.7-.99Z"/>
    <path class="cls-1" d="M75.24,33.43h-22.34l-3.97,10.01c-.39,1.16-1.16,1.74-2.32,1.74s-2.04-.5-2.65-1.49c-.17-.33-.25-.63-.25-.91s.08-.63.25-1.08L58.94,4.97c1.1-2.76,2.37-4.33,3.81-4.72C63.13.19,63.63.11,64.24,0,65.34,0,66.17.25,66.72.74c.88.66,1.77,2.07,2.65,4.22l15.23,36.75c.05.33.08.66.08.99s-.08.66-.25.99-.39.58-.66.75c-.55.5-1.16.74-1.82.74-1.32,0-2.21-.58-2.65-1.74l-4.06-10.01M75.24,33.43l-11.17-28.72-11.17,28.72h22.34"/>
    <rect class="cls-1" x="58.48" y="34.38" width="11.18" height="4.58" rx="2.29" ry="2.29"/>
    <path class="cls-1" d="M129.01,12.91C125.76,4.3,118.2,0,106.34,0h-27.46C78.44,0,78.05.08,77.72.25c-1.05.61-1.57,1.46-1.57,2.57h0c0,.91.74,1.66,1.66,1.66h27.71c6.12,0,10.76,1.44,13.9,4.3,1.66,1.54,2.92,3.48,3.81,5.79.88,2.32,1.32,4.94,1.32,7.86s-.33,5.49-.99,7.7c-2.1,7.17-7.56,10.76-16.39,10.76h-13.65c-.87,0-1.57.7-1.57,1.57h0c-.06.39-.03.74.08,1.08.61,1.1,1.49,1.66,2.65,1.66h11.83c7.61,0,13.52-1.9,17.71-5.71,4.19-3.81,6.29-9.41,6.29-16.8.05-3.7-.44-6.95-1.49-9.77Z"/>
    <path class="cls-1" d="M171.39,41.71c.05.33.08.66.08.99s-.08.66-.25.99c-.17.33-.39.58-.66.75-.55.5-1.16.74-1.82.74-1.32,0-2.21-.58-2.65-1.74l-4.06-10.01h-22.34l-3.97,10.01c-.39,1.16-1.16,1.74-2.32,1.74s-2.04-.5-2.65-1.49c-.17-.33-.25-.63-.25-.91s.08-.63.25-1.08l14.98-36.75c1.1-2.76,2.37-4.33,3.81-4.72C149.93.19,150.43.11,151.03,0,152.14,0,152.96.25,153.51.74c.88.66,1.77,2.07,2.65,4.22l15.23,36.75ZM139.69,33.43h22.34l-11.17-28.72-11.17,28.72Z"/>
    <rect class="cls-1" x="145.28" y="34.38" width="11.18" height="4.58" rx="2.29" ry="2.29"/>
    <path class="cls-1" d="M162.52.08c.63-.05,1.21,0,1.74.17.52.17.98.41,1.37.75.66.55,1.49,1.82,2.48,3.81l14.73,33.1h.08l14.98-33.1c.48-1.02.89-1.83,1.24-2.44.5-.88,1.23-1.64,2.16-2.05C201.78.1,202.26,0,202.74,0,203.71,0,204.45.11,204.98.33c.52.22.98.52,1.37.91.94.94,1.41,2.18,1.41,3.72v37.74c0,.83-.26,1.45-.79,1.86-.53.41-1.12.62-1.78.62s-1.24-.21-1.74-.62c-.5-.41-.74-1.04-.74-1.86V5.63l-16.39,36.08c-.66,1.66-1.82,2.48-3.48,2.48-1.44,0-2.57-.83-3.39-2.48l-16.16-35.59-1.57-3.46-.28-.61c-.39-.85.16-1.84,1.08-1.96h0Z"/>
    <path class="cls-1" d="M214.04,12.91C217.3,4.3,224.86,0,236.72,0h10.76c.44,0,.83.08,1.16.25,1.05.61,1.57,1.46,1.57,2.57v.08c0,.87-.7,1.57-1.57,1.57h-3.97s-7.12,0-7.12,0c-6.12,0-10.76,1.44-13.9,4.3-1.66,1.54-2.92,3.48-3.81,5.79-.88,2.32-1.32,4.94-1.32,7.86s.33,5.49.99,7.7c2.1,7.17,7.56,10.76,16.39,10.76h8.77s3.97,0,3.97,0c.87,0,1.57.7,1.57,1.57h0c.06.39.03.74-.08,1.08-.61,1.1-1.49,1.66-2.65,1.66h-10.92c-7.61,0-13.52-1.9-17.71-5.71-4.19-3.81-6.29-9.41-6.29-16.8-.05-3.7.44-6.95,1.49-9.77Z"/>
    <path class="cls-1" d="M258.35,45.19c-1.05,0-1.88-.22-2.48-.66-.66-.66-.99-1.35-.99-2.07s.19-1.41.58-2.07l25.01-35.93-22.95.02c-.72,0-1.36,0-1.77-.5s-.62-1.03-.62-1.61.19-1.12.58-1.61C256.08.25,256.66,0,257.44,0h26.98C285.3,0,286.02.25,286.57.74c.55.5.83,1.02.83,1.57,0,.99-.25,1.82-.75,2.48l-24.91,35.75h23.01c.88,0,1.49.25,1.82.74.33.5.5,1.05.5,1.66s-.19,1.13-.58,1.57c-.39.44-.97.66-1.74.66h-26.4Z"/>
    <path class="cls-1" d="M312.65,25.99v16.47c0,1.27-.58,2.12-1.74,2.57-.33.11-.77.17-1.32.17s-1.13-.22-1.74-.66c-.61-.44-.91-1.13-.91-2.07v-16.39l-14.65-22.26c-.28-.33-.41-.69-.41-1.08s.08-.75.25-1.08c.17-.33.41-.63.75-.91.66-.5,1.32-.74,1.99-.74,1.21,0,2.1.5,2.65,1.49l12.66,20.11h.08l12.75-20.28c.55-.88,1.32-1.32,2.32-1.32,1.1,0,1.88.44,2.32,1.32.22.28.33.55.33.83,0,.33-.14.72-.41,1.16l-14.9,22.68Z"/>
    <path class="cls-1" d="M326.56,22.59h0l1.83,2.91,11.51,18.3c.58.92,1.39,1.38,2.42,1.38,1.15,0,1.96-.46,2.42-1.38.23-.29.35-.58.35-.87,0-.35-.15-.75-.43-1.21l-12.57-19.13,12.57-19.13c.29-.46.43-.87.43-1.21,0-.29-.12-.58-.35-.87C344.28.46,343.47,0,342.32,0,341.28,0,340.47.46,339.89,1.38"/>
  </g>
</svg>